<svg xmlns="http://www.w3.org/2000/svg" viewBox="0 0 760 380" width="760" height="380" role="img">
  <style>
    .surface { fill: #fcfcfb; }
    .ink   { fill: #0b0b0b; }
    .muted { fill: #52514e; }
    .grid  { stroke: #e6e5e1; }
    .s1f { fill: #2a78d6; } .s1s { stroke: #2a78d6; }
    .s2f { fill: #eb6834; } .s2s { stroke: #eb6834; }
    .crit { fill: #d03b3b; stroke: #d03b3b; }
    text { font-family: ui-sans-serif, -apple-system, "Segoe UI", Roboto, "Helvetica Neue", Arial, sans-serif; }
    .title { font-size: 15px; font-weight: 600; }
    .sub   { font-size: 12px; }
    .lab   { font-size: 12px; }
    .tick  { font-size: 11px; }
    .val   { font-size: 11px; font-weight: 600; }
    .grid  { stroke-width: 1; }
    .axis  { stroke-width: 1.5; }
    @media (prefers-color-scheme: dark) {
      .surface { fill: #1a1a19; }
      .ink   { fill: #ffffff; }
      .muted { fill: #c3c2b7; }
      .grid  { stroke: #333331; }
      .s1f { fill: #3987e5; } .s1s { stroke: #3987e5; }
      .s2f { fill: #d95926; } .s2s { stroke: #d95926; }
    }
    
  </style><rect width="760" height="380" class="surface"/><line x1="62" y1="284.0" x2="736" y2="284.0" class="grid"/><text x="52" y="288.0" text-anchor="end" class="tick muted">0%</text><line x1="62" y1="228.5" x2="736" y2="228.5" class="grid"/><text x="52" y="232.5" text-anchor="end" class="tick muted">25%</text><line x1="62" y1="173.0" x2="736" y2="173.0" class="grid"/><text x="52" y="177.0" text-anchor="end" class="tick muted">50%</text><line x1="62" y1="117.5" x2="736" y2="117.5" class="grid"/><text x="52" y="121.5" text-anchor="end" class="tick muted">75%</text><line x1="62" y1="62.0" x2="736" y2="62.0" class="grid"/><text x="52" y="66.0" text-anchor="end" class="tick muted">100%</text><path d="M111.25,284 L111.25,66.0 Q111.25,62.0 115.25,62.0 L141.25,62.0 Q145.25,62.0 145.25,66.0 L145.25,284 Z" class="s1f"/><path d="M147.25,284 L147.25,268.2 Q147.25,264.2 151.25,264.2 L177.25,264.2 Q181.25,264.2 181.25,268.2 L181.25,284 Z" class="s2f"/><text x="128.3" y="54.0" text-anchor="middle" class="val ink">100%</text><text x="164.3" y="256.2" text-anchor="middle" class="val ink">8.9%</text><text x="146.3" y="304" text-anchor="middle" class="tick muted">both</text><text x="146.3" y="318" text-anchor="middle" class="tick muted">bookmarked</text><text x="146.3" y="336" text-anchor="middle" class="tick muted">794 accepted</text><path d="M279.75,284 L279.75,66.0 Q279.75,62.0 283.75,62.0 L309.75,62.0 Q313.75,62.0 313.75,66.0 L313.75,284 Z" class="s1f"/><path d="M315.75,284 L315.75,248.5 Q315.75,244.5 319.75,244.5 L345.75,244.5 Q349.75,244.5 349.75,248.5 L349.75,284 Z" class="s2f"/><text x="296.8" y="54.0" text-anchor="middle" class="val ink">100%</text><text x="332.8" y="236.5" text-anchor="middle" class="val ink">17.8%</text><text x="314.8" y="304" text-anchor="middle" class="tick muted">key not</text><text x="314.8" y="318" text-anchor="middle" class="tick muted">bookmarked</text><text x="314.8" y="336" text-anchor="middle" class="tick muted">717 accepted</text><path d="M448.25,284 L448.25,66.0 Q448.25,62.0 452.25,62.0 L478.25,62.0 Q482.25,62.0 482.25,66.0 L482.25,284 Z" class="s1f"/><path d="M484.25,284 L484.25,70.4 Q484.25,66.4 488.25,66.4 L514.25,66.4 Q518.25,66.4 518.25,70.4 L518.25,284 Z" class="s2f"/><text x="465.3" y="54.0" text-anchor="middle" class="val ink">100%</text><text x="501.3" y="58.4" text-anchor="middle" class="val ink">98%</text><text x="483.3" y="304" text-anchor="middle" class="tick muted">exercise not</text><text x="483.3" y="318" text-anchor="middle" class="tick muted">bookmarked</text><text x="483.3" y="336" text-anchor="middle" class="tick muted">2 accepted †</text><path d="M616.75,284 L616.75,66.0 Q616.75,62.0 620.75,62.0 L646.75,62.0 Q650.75,62.0 650.75,66.0 L650.75,284 Z" class="s1f"/><path d="M652.75,284 L652.75,265.4 Q652.75,261.4 656.75,261.4 L682.75,261.4 Q686.75,261.4 686.75,265.4 L686.75,284 Z" class="s2f"/><text x="633.8" y="54.0" text-anchor="middle" class="val ink">100%</text><text x="669.8" y="253.4" text-anchor="middle" class="val ink">10.2%</text><text x="651.8" y="304" text-anchor="middle" class="tick muted">neither</text><text x="651.8" y="318" text-anchor="middle" class="tick muted">bookmarked</text><text x="651.8" y="336" text-anchor="middle" class="tick muted">44 accepted †</text><line x1="62" y1="284" x2="736" y2="284" class="grid axis"/><rect x="62" y="38" width="11" height="11" rx="2" class="s1f"/><text x="79" y="48" class="lab muted">precision of accepted matches</text><rect x="284" y="38" width="11" height="11" rx="2" class="s2f"/><text x="301" y="48" class="lab muted">share of attempts refused</text><text x="62" y="24" class="title ink">Precision does not move; the engine refuses instead</text><text x="62" y="370" class="tick muted">† page-sampled. Zero wrong answers in every regime.</text></svg>
